<svg id="visual" viewBox="0 0 960 540" width="960" height="540" xmlns="http://www.w3.org/2000/svg" xmlns:xlink="http://www.w3.org/1999/xlink" version="1.1"><path d="M0 114L17.8 115.8C35.7 117.7 71.3 121.3 106.8 119.7C142.3 118 177.7 111 213.2 113.7C248.7 116.3 284.3 128.7 320 140.3C355.7 152 391.3 163 426.8 166.7C462.3 170.3 497.7 166.7 533.2 159.5C568.7 152.3 604.3 141.7 640 140.8C675.7 140 711.3 149 746.8 153.5C782.3 158 817.7 158 853.2 154.3C888.7 150.7 924.3 143.3 942.2 139.7L960 136L960 0L942.2 0C924.3 0 888.7 0 853.2 0C817.7 0 782.3 0 746.8 0C711.3 0 675.7 0 640 0C604.3 0 568.7 0 533.2 0C497.7 0 462.3 0 426.8 0C391.3 0 355.7 0 320 0C284.3 0 248.7 0 213.2 0C177.7 0 142.3 0 106.8 0C71.3 0 35.7 0 17.8 0L0 0Z" fill="#f6f6f6"></path><path d="M0 147L17.8 149.7C35.7 152.3 71.3 157.7 106.8 155C142.3 152.3 177.7 141.7 213.2 144.3C248.7 147 284.3 163 320 177.3C355.7 191.7 391.3 204.3 426.8 206.2C462.3 208 497.7 199 533.2 190.8C568.7 182.7 604.3 175.3 640 177.2C675.7 179 711.3 190 746.8 196.3C782.3 202.7 817.7 204.3 853.2 201.7C888.7 199 924.3 192 942.2 188.5L960 185L960 134L942.2 137.7C924.3 141.3 888.7 148.7 853.2 152.3C817.7 156 782.3 156 746.8 151.5C711.3 147 675.7 138 640 138.8C604.3 139.7 568.7 150.3 533.2 157.5C497.7 164.7 462.3 168.3 426.8 164.7C391.3 161 355.7 150 320 138.3C284.3 126.7 248.7 114.3 213.2 111.7C177.7 109 142.3 116 106.8 117.7C71.3 119.3 35.7 115.7 17.8 113.8L0 112Z" fill="#f7f0ea"></path><path d="M0 271L17.8 274.7C35.7 278.3 71.3 285.7 106.8 285.7C142.3 285.7 177.7 278.3 213.2 279.2C248.7 280 284.3 289 320 294.3C355.7 299.7 391.3 301.3 426.8 300.5C462.3 299.7 497.7 296.3 533.2 292.8C568.7 289.3 604.3 285.7 640 285.7C675.7 285.7 711.3 289.3 746.8 290.2C782.3 291 817.7 289 853.2 288C888.7 287 924.3 287 942.2 287L960 287L960 183L942.2 186.5C924.3 190 888.7 197 853.2 199.7C817.7 202.3 782.3 200.7 746.8 194.3C711.3 188 675.7 177 640 175.2C604.3 173.3 568.7 180.7 533.2 188.8C497.7 197 462.3 206 426.8 204.2C391.3 202.3 355.7 189.7 320 175.3C284.3 161 248.7 145 213.2 142.3C177.7 139.7 142.3 150.3 106.8 153C71.3 155.7 35.7 150.3 17.8 147.7L0 145Z" fill="#f8e9de"></path><path d="M0 341L17.8 344.7C35.7 348.3 71.3 355.7 106.8 355.7C142.3 355.7 177.7 348.3 213.2 345.7C248.7 343 284.3 345 320 347.7C355.7 350.3 391.3 353.7 426.8 354.5C462.3 355.3 497.7 353.7 533.2 352C568.7 350.3 604.3 348.7 640 352.3C675.7 356 711.3 365 746.8 365.8C782.3 366.7 817.7 359.3 853.2 358.3C888.7 357.3 924.3 362.7 942.2 365.3L960 368L960 285L942.2 285C924.3 285 888.7 285 853.2 286C817.7 287 782.3 289 746.8 288.2C711.3 287.3 675.7 283.7 640 283.7C604.3 283.7 568.7 287.3 533.2 290.8C497.7 294.3 462.3 297.7 426.8 298.5C391.3 299.3 355.7 297.7 320 292.3C284.3 287 248.7 278 213.2 277.2C177.7 276.3 142.3 283.7 106.8 283.7C71.3 283.7 35.7 276.3 17.8 272.7L0 269Z" fill="#f9e3d3"></path><path d="M0 401L17.8 403.7C35.7 406.3 71.3 411.7 106.8 409.8C142.3 408 177.7 399 213.2 398C248.7 397 284.3 404 320 407.5C355.7 411 391.3 411 426.8 409.3C462.3 407.7 497.7 404.3 533.2 406.2C568.7 408 604.3 415 640 416.7C675.7 418.3 711.3 414.7 746.8 415.7C782.3 416.7 817.7 422.3 853.2 424.2C888.7 426 924.3 424 942.2 423L960 422L960 366L942.2 363.3C924.3 360.7 888.7 355.3 853.2 356.3C817.7 357.3 782.3 364.7 746.8 363.8C711.3 363 675.7 354 640 350.3C604.3 346.7 568.7 348.3 533.2 350C497.7 351.7 462.3 353.3 426.8 352.5C391.3 351.7 355.7 348.3 320 345.7C284.3 343 248.7 341 213.2 343.7C177.7 346.3 142.3 353.7 106.8 353.7C71.3 353.7 35.7 346.3 17.8 342.7L0 339Z" fill="#f9ddc7"></path><path d="M0 444L17.8 448.5C35.7 453 71.3 462 106.8 462.8C142.3 463.7 177.7 456.3 213.2 456.3C248.7 456.3 284.3 463.7 320 466.3C355.7 469 391.3 467 426.8 465.2C462.3 463.3 497.7 461.7 533.2 462.7C568.7 463.7 604.3 467.3 640 466.5C675.7 465.7 711.3 460.3 746.8 462.2C782.3 464 817.7 473 853.2 476.5C888.7 480 924.3 478 942.2 477L960 476L960 420L942.2 421C924.3 422 888.7 424 853.2 422.2C817.7 420.3 782.3 414.7 746.8 413.7C711.3 412.7 675.7 416.3 640 414.7C604.3 413 568.7 406 533.2 404.2C497.7 402.3 462.3 405.7 426.8 407.3C391.3 409 355.7 409 320 405.5C284.3 402 248.7 395 213.2 396C177.7 397 142.3 406 106.8 407.8C71.3 409.7 35.7 404.3 17.8 401.7L0 399Z" fill="#f9d7bb"></path><path d="M0 487L17.8 488.8C35.7 490.7 71.3 494.3 106.8 495.2C142.3 496 177.7 494 213.2 494.8C248.7 495.7 284.3 499.3 320 500.3C355.7 501.3 391.3 499.7 426.8 497.8C462.3 496 497.7 494 533.2 496.7C568.7 499.3 604.3 506.7 640 507.7C675.7 508.7 711.3 503.3 746.8 502.5C782.3 501.7 817.7 505.3 853.2 506.2C888.7 507 924.3 505 942.2 504L960 503L960 474L942.2 475C924.3 476 888.7 478 853.2 474.5C817.7 471 782.3 462 746.8 460.2C711.3 458.3 675.7 463.7 640 464.5C604.3 465.3 568.7 461.7 533.2 460.7C497.7 459.7 462.3 461.3 426.8 463.2C391.3 465 355.7 467 320 464.3C284.3 461.7 248.7 454.3 213.2 454.3C177.7 454.3 142.3 461.7 106.8 460.8C71.3 460 35.7 451 17.8 446.5L0 442Z" fill="#f9d0b0"></path><path d="M0 541L17.8 541C35.7 541 71.3 541 106.8 541C142.3 541 177.7 541 213.2 541C248.7 541 284.3 541 320 541C355.7 541 391.3 541 426.8 541C462.3 541 497.7 541 533.2 541C568.7 541 604.3 541 640 541C675.7 541 711.3 541 746.8 541C782.3 541 817.7 541 853.2 541C888.7 541 924.3 541 942.2 541L960 541L960 501L942.2 502C924.3 503 888.7 505 853.2 504.2C817.7 503.3 782.3 499.7 746.8 500.5C711.3 501.3 675.7 506.7 640 505.7C604.3 504.7 568.7 497.3 533.2 494.7C497.7 492 462.3 494 426.8 495.8C391.3 497.7 355.7 499.3 320 498.3C284.3 497.3 248.7 493.7 213.2 492.8C177.7 492 142.3 494 106.8 493.2C71.3 492.3 35.7 488.7 17.8 486.8L0 485Z" fill="#f8caa4"></path></svg>