<svg id="visual" viewBox="0 0 960 540" width="960" height="540" xmlns="http://www.w3.org/2000/svg" xmlns:xlink="http://www.w3.org/1999/xlink" version="1.1"><rect x="0" y="0" width="960" height="540" fill="#ffffff"></rect><defs><linearGradient id="grad1_0" x1="43.8%" y1="0%" x2="100%" y2="100%"><stop offset="14.444444444444446%" stop-color="#ffffff" stop-opacity="1"></stop><stop offset="85.55555555555554%" stop-color="#ffffff" stop-opacity="1"></stop></linearGradient></defs><defs><linearGradient id="grad2_0" x1="0%" y1="0%" x2="56.3%" y2="100%"><stop offset="14.444444444444446%" stop-color="#ffffff" stop-opacity="1"></stop><stop offset="85.55555555555554%" stop-color="#ffffff" stop-opacity="1"></stop></linearGradient></defs><g transform="translate(960, 0)"><path d="M0 324C-46.1 321.9 -92.2 319.8 -122.8 296.6C-153.5 273.4 -168.8 229 -199.4 199.4C-230 169.8 -276 154.8 -299.3 124C-322.7 93.2 -323.3 46.6 -324 0L0 0Z" fill="#FBAE3C"></path></g><g transform="translate(0, 540)"><path d="M0 -324C47 -325 94 -326 124 -299.3C154 -272.7 166.9 -218.5 181.7 -181.7C196.6 -145 213.4 -125.7 237.4 -98.3C261.5 -71 292.7 -35.5 324 0L0 0Z" fill="#FBAE3C"></path></g></svg>