<svg xmlns="http://www.w3.org/2000/svg" width="170" height="70" viewBox="0 0 170 70" fill="none"><rect width="170" height="70" rx="10" fill="white"></rect><path d="M97.4303 30.01C97.697 30.01 97.9503 29.88 98.145 30.0747C98.2097 30.3413 98.145 30.5293 98.145 30.7893V39.8853C97.9112 39.9504 97.6641 39.9504 97.4303 39.8853V38.392C96.8457 39.172 96.0657 39.7567 95.1637 39.952C94.059 40.2187 92.7597 40.0167 91.8503 39.302C91.2657 38.8473 90.8103 38.1973 90.4857 37.5487C90.031 36.444 90.161 35.08 90.8103 34.04C91.3303 33.1953 92.175 32.5467 93.2143 32.3507C94.2543 32.084 95.4237 32.286 96.2677 32.8707C96.7223 33.1373 97.0477 33.5207 97.3723 33.9107L97.437 30.0127M93.4663 33C91.9063 33.3247 90.8023 34.9493 90.9977 36.5087C91.1277 37.6133 91.907 38.522 92.8817 39.042C93.7263 39.3667 94.7017 39.432 95.4803 38.9773C96.7803 38.4573 97.6243 36.964 97.3643 35.534C97.2343 34.5593 96.5843 33.714 95.7403 33.2673C95.0257 32.9427 94.247 32.8773 93.4737 33.0007L93.4663 33ZM121.333 30.0113C121.528 29.8167 121.788 29.9467 122.048 30.0113V39.8867C121.814 39.9517 121.567 39.9517 121.333 39.8867V38.4C120.683 39.3093 119.58 40.024 118.409 40.0893C117.629 40.154 116.849 39.9593 116.2 39.5693C115.225 39.0493 114.51 38.076 114.25 36.9707C114.056 35.996 114.186 34.9573 114.77 34.112C115.355 33.2027 116.264 32.552 117.304 32.3587C118.344 32.1653 119.448 32.3587 120.292 32.9433C120.682 33.21 121.007 33.528 121.332 33.918V30.0133M117.369 33C116.524 33.1947 115.745 33.78 115.289 34.56C114.899 35.21 114.834 35.9893 114.964 36.704C115.159 37.744 115.939 38.6533 116.978 39.0427C117.628 39.3093 118.342 39.3093 119.058 39.1073C119.708 38.8407 120.358 38.4573 120.747 37.8073C121.267 37.0927 121.462 36.118 121.202 35.274C121.007 34.2993 120.292 33.5207 119.448 33.0647C118.798 32.87 118.02 32.87 117.369 33ZM112.302 30.0753C112.692 29.9453 113.082 30.4653 112.822 30.79C112.692 31.0567 112.238 31.1147 112.042 30.8547C111.776 30.588 111.978 30.14 112.309 30.0747L112.302 30.0753ZM76.3023 32.22C77.147 32.09 78.0557 32.1553 78.771 32.61C79.3557 32.8767 79.811 33.3247 80.2643 33.8447V32.2847H80.9143C80.979 34.818 80.9143 37.3527 80.9143 39.886C80.7197 39.9507 80.4597 39.9507 80.1997 39.886V38.3927C79.5497 39.1727 78.7703 39.822 77.731 39.9527C76.8863 40.1473 75.9777 40.0173 75.1323 39.628C73.963 39.0433 73.183 37.9387 72.9883 36.704C72.9237 35.9893 72.9883 35.2107 73.313 34.56C73.8977 33.3253 75.0663 32.48 76.3017 32.2213M76.3663 33.0013C75.2617 33.268 74.2863 34.106 73.9623 35.268C73.5723 36.568 74.157 38.068 75.2623 38.7767C76.0423 39.2967 77.0157 39.4267 77.861 39.2313C78.901 38.9067 79.745 38.1267 80.0703 37.0873C80.525 35.8527 80.0057 34.3587 78.901 33.5787C78.1863 32.994 77.2117 32.7987 76.3677 32.994L76.3663 33.0013ZM83.7217 32.9333C84.9563 31.8933 86.905 31.8933 88.1397 32.9333C88.9197 33.5833 89.4397 34.6227 89.4397 35.662V39.8853C89.173 39.95 88.9197 39.95 88.725 39.8853V35.5333C88.6603 34.104 87.3603 32.8693 85.925 32.9347C84.4957 32.9347 83.261 34.1693 83.1963 35.5987V39.8867C82.9626 39.9517 82.7155 39.9517 82.4817 39.8867V35.8C82.417 34.6953 82.8717 33.656 83.7163 32.9413L83.7217 32.9333ZM99.4443 35.4667C99.4443 33.6467 101.134 32.0233 102.888 32.1533C102.888 32.348 102.952 32.608 102.888 32.8033C102.693 32.9333 102.498 32.868 102.303 32.9333C101.523 33.128 100.81 33.648 100.419 34.4267C100.094 35.1413 100.152 35.92 100.152 36.6933V39.8767C99.9577 40.0067 99.6977 39.9413 99.4377 39.9413V35.4667H99.4443ZM105.942 32.284C106.851 32.0893 107.891 32.2193 108.67 32.7387C109.645 33.3233 110.424 34.2987 110.62 35.4673C110.75 36.182 110.684 36.9607 110.353 37.6767C109.833 38.9767 108.533 39.9433 107.17 40.0807C106.26 40.1453 105.286 39.9507 104.506 39.366C103.668 38.7815 103.087 37.8979 102.882 36.8973C102.687 35.9227 102.882 34.948 103.402 34.0973C103.922 33.1227 104.895 32.4733 105.935 32.2773M106.065 32.992C104.505 33.3167 103.336 34.9413 103.596 36.5653C103.726 37.41 104.116 38.1253 104.831 38.6453C105.546 39.2953 106.651 39.49 107.631 39.23C108.216 39.0353 108.8 38.71 109.191 38.2553C109.776 37.6707 110.036 36.826 110.036 35.9887C109.971 34.884 109.321 33.8447 108.346 33.3247C107.632 32.9347 106.786 32.87 106.08 33L106.065 32.992ZM112.049 32.472C112.244 32.2773 112.569 32.342 112.829 32.4073V39.554C112.829 39.8787 112.374 39.684 112.179 39.7487C112.145 39.7463 112.114 39.7319 112.09 39.708C112.066 39.6841 112.051 39.6524 112.049 39.6187V32.472Z" fill="black"></path><path d="M54.2003 22.68L55.3249 24.688C53.2363 25.732 51.7903 27.7413 51.7903 30.07H65.2869C65.2869 27.7407 63.8403 25.732 61.7523 24.688L62.8769 22.68C62.8769 22.68 62.9569 22.6 62.7969 22.52C62.7169 22.44 62.6369 22.6 62.6369 22.6L61.4323 24.608C60.4976 24.1877 59.485 23.9688 58.4603 23.9653C57.4355 23.9688 56.4229 24.1877 55.4883 24.608L54.2883 22.6C54.2883 22.6 54.2083 22.52 54.1283 22.52C54.1283 22.6 54.2083 22.68 54.2083 22.68H54.2003ZM55.3249 26.616C55.4915 26.6278 55.6482 26.6993 55.7663 26.8173C55.8843 26.9354 55.9558 27.0921 55.9676 27.2587C55.9558 27.4252 55.8843 27.5819 55.7663 27.7C55.6482 27.818 55.4915 27.8895 55.3249 27.9013C55.2402 27.9026 55.1561 27.8868 55.0775 27.855C54.999 27.8231 54.9276 27.7758 54.8677 27.7159C54.8078 27.656 54.7605 27.5846 54.7286 27.5061C54.6968 27.4275 54.681 27.3434 54.6823 27.2587C54.681 27.1739 54.6968 27.0898 54.7286 27.0112C54.7605 26.9327 54.8078 26.8613 54.8677 26.8014C54.9276 26.7415 54.999 26.6942 55.0775 26.6623C55.1561 26.6305 55.2402 26.6147 55.3249 26.616ZM61.7516 26.616C61.9182 26.6278 62.0749 26.6993 62.1929 26.8173C62.311 26.9354 62.3825 27.0921 62.3943 27.2587C62.3825 27.4252 62.311 27.5819 62.1929 27.7C62.0749 27.818 61.9182 27.8895 61.7516 27.9013C61.6669 27.9026 61.5827 27.8868 61.5042 27.855C61.4256 27.8231 61.3543 27.7758 61.2944 27.7159C61.2344 27.656 61.1871 27.5846 61.1553 27.5061C61.1234 27.4275 61.1077 27.3434 61.1089 27.2587C61.1077 27.1739 61.1234 27.0898 61.1553 27.0112C61.1871 26.9327 61.2344 26.8613 61.2944 26.8014C61.3543 26.7415 61.4256 26.6942 61.5042 26.6623C61.5827 26.6305 61.6669 26.6147 61.7516 26.616ZM51.7109 30.8667V41.1493C51.7109 41.6313 52.3536 42.354 52.8356 42.354H54.4356V45.8887C54.4356 46.772 55.0783 47.4887 55.8823 47.4887C56.6863 47.4887 57.3289 46.766 57.3289 45.8887V42.36H59.6583V45.8947C59.6583 46.778 60.3009 47.4947 61.1049 47.4947C61.9089 47.4947 62.5516 46.772 62.5516 45.8947V42.36H64.1516C64.6336 42.36 65.2763 41.7173 65.2763 41.1553V30.8667H51.7109Z" fill="#A4C639"></path><path d="M49.4613 30.6333C50.2646 30.6333 50.908 31.356 50.908 32.2333V38.3387C50.908 39.222 50.2653 39.9387 49.4613 39.9387C48.6573 39.9387 48.0146 39.216 48.0146 38.3387V32.24C48.0146 31.3567 48.6573 30.64 49.4613 30.64V30.6333Z" fill="#A4C639"></path><path d="M67.6166 30.6333C68.42 30.6333 69.0633 31.356 69.0633 32.2333V38.3387C69.0633 39.222 68.4206 39.9387 67.6166 39.9387C66.8126 39.9387 66.17 39.216 66.17 38.3387V32.24C66.17 31.3567 66.8126 30.64 67.6166 30.64V30.6333Z" fill="#A4C639"></path></svg>