<svg xmlns="http://www.w3.org/2000/svg" width="170" height="70" viewBox="0 0 170 70" fill="none"><rect width="170" height="70" rx="10" fill="white"></rect><path d="M36.9209 45.946L37.1124 45.6778L46.1691 28.493L46.1883 28.311L42.196 20.8118C41.8613 20.1837 40.9196 20.3424 40.8099 21.0456L36.9209 45.946Z" fill="#FFC24A"></path><path d="M37.0342 45.7414L37.179 45.459L46.1399 28.4542L42.1585 20.9245C41.8275 20.3029 40.9871 20.4613 40.8776 21.1573L37.0342 45.7414Z" fill="#FFA712"></path><path d="M37.0342 45.7414L37.179 45.459L46.1399 28.4542L42.1585 20.9245C41.8275 20.3029 40.9871 20.4613 40.8776 21.1573L37.0342 45.7414Z" fill="black"></path><path d="M49.0984 33.9834L52.0711 30.9391L49.0976 25.2626C48.8153 24.7252 48.0272 24.7237 47.7479 25.2626L46.1592 28.2934V28.5514L49.0984 33.9834Z" fill="#F4BD62"></path><path d="M49.0457 33.8566L51.9356 30.8969L49.0457 25.3938C48.7713 24.8707 48.1046 24.8167 47.8331 25.3397L46.2361 28.4156L46.1883 28.573L49.0457 33.8566Z" fill="#FFA50E"></path><path d="M49.0457 33.8566L51.9356 30.8969L49.0457 25.3938C48.7713 24.8707 48.1046 24.8167 47.8331 25.3397L46.2361 28.4156L46.1883 28.573L49.0457 33.8566Z" fill="black"></path><path d="M46.1679 28.2758L36.9209 45.946L37.0077 45.8587L37.323 45.7306L48.9121 34.1846L49.0588 33.785L46.1679 28.2758Z" fill="#F6820C"></path><path d="M49.4699 51.7687L59.9583 45.9193L56.964 27.4726C56.8702 26.8955 56.1623 26.6672 55.7492 27.0811L36.9209 45.946L47.3491 51.7684C47.6732 51.9493 48.0383 52.0443 48.4095 52.0444C48.7807 52.0445 49.1458 51.9496 49.47 51.7688" fill="#FDE068"></path><path d="M59.8644 45.8704L56.892 27.5644C56.7991 26.9916 56.2101 26.7547 55.8002 27.1654L37.0382 45.9101L47.3518 51.674C48.0058 52.0392 48.8023 52.0394 49.4566 51.6746L59.8644 45.8704Z" fill="#FCCA3F"></path><path d="M49.4699 51.5965C48.8115 51.9641 48.008 51.964 47.349 51.5959L37.0048 45.8573L36.9209 45.946L47.3491 51.7684C48.0081 52.1364 48.8107 52.1364 49.47 51.7688L59.9584 45.9194L59.9327 45.7613L49.4699 51.5965Z" fill="#EEAB37"></path><path d="M67.9 43.237H66.115V29.345H74.215V31.052H67.9V35.612H73.605V37.282H67.9V43.237ZM77.353 31.343C77.107 31.589 76.81 31.713 76.461 31.713C76.2949 31.7159 76.13 31.6845 75.9765 31.6208C75.823 31.5572 75.6843 31.4626 75.569 31.343C75.4499 31.2273 75.3556 31.0885 75.292 30.9352C75.2284 30.7818 75.1967 30.617 75.199 30.451C75.1961 30.2849 75.2275 30.1199 75.2912 29.9665C75.3548 29.813 75.4494 29.6743 75.569 29.559C75.6847 29.4399 75.8235 29.3456 75.9768 29.282C76.1302 29.2184 76.295 29.1867 76.461 29.189C76.6271 29.1861 76.7921 29.2175 76.9455 29.2812C77.099 29.3448 77.2377 29.4394 77.353 29.559C77.4721 29.6747 77.5664 29.8134 77.63 29.9668C77.6936 30.1202 77.7253 30.285 77.723 30.451C77.7259 30.6171 77.6945 30.782 77.6308 30.9355C77.5672 31.089 77.4726 31.2277 77.353 31.343ZM77.353 43.237H75.568V33.73H77.353V43.237ZM81.206 43.237H79.42V33.73H81.127V35.282H81.204C81.384 34.765 81.757 34.338 82.32 34.002C82.883 33.666 83.42 33.497 83.96 33.497C84.5 33.497 84.937 33.575 85.3 33.73L84.62 35.4C84.387 35.3 84.07 35.264 83.67 35.264C83.023 35.264 82.45 35.519 81.953 36.03C81.456 36.541 81.206 37.21 81.206 38.038V43.237ZM89.994 43.537C88.558 43.537 87.391 43.059 86.492 42.101C85.593 41.143 85.142 39.935 85.142 38.473C85.142 37.089 85.578 35.899 86.442 34.903C87.306 33.907 88.442 33.409 89.789 33.409C91.189 33.409 92.327 33.869 93.175 34.787C94.023 35.705 94.445 36.934 94.445 38.474L94.425 38.804H86.925C86.977 39.761 87.297 40.518 87.885 41.074C88.1578 41.342 88.4808 41.5536 88.8355 41.6967C89.1902 41.8398 89.5696 41.9116 89.952 41.908C91.232 41.908 92.099 41.365 92.552 40.278L94.152 40.938C93.852 41.675 93.33 42.293 92.619 42.791C91.908 43.289 91.034 43.538 89.999 43.538L89.994 43.537ZM92.554 37.337C92.514 36.794 92.266 36.277 91.807 35.785C91.348 35.293 90.665 35.048 89.76 35.048C89.1 35.048 88.528 35.255 88.043 35.668C87.558 36.081 87.225 36.638 87.043 37.338H92.543L92.554 37.337ZM100.917 43.537C100.192 43.537 99.542 43.382 98.967 43.071C98.392 42.76 97.961 42.373 97.667 41.907H97.6V43.227H95.893V29.345H97.678V33.73L97.6 35.05H97.678C97.963 34.584 98.393 34.196 98.978 33.886C99.563 33.576 100.204 33.42 100.928 33.42C102.158 33.42 103.228 33.905 104.11 34.875C104.992 35.845 105.45 37.048 105.45 38.475C105.45 39.902 105.004 41.115 104.11 42.075C103.216 43.035 102.157 43.53 100.928 43.53L100.917 43.537ZM100.617 41.907C101.445 41.907 102.157 41.593 102.751 40.967C103.345 40.341 103.643 39.509 103.643 38.474C103.643 37.439 103.345 36.608 102.751 35.981C102.157 35.354 101.444 35.041 100.617 35.041C100.214 35.0331 99.8137 35.1121 99.4437 35.2725C99.0738 35.433 98.7427 35.6712 98.473 35.971C97.885 36.601 97.59 37.426 97.59 38.474C97.59 39.522 97.884 40.356 98.473 40.977C99.062 41.598 99.776 41.909 100.617 41.909V41.907ZM110.13 43.537C109.13 43.537 108.277 43.237 107.598 42.664C106.919 42.091 106.578 41.312 106.578 40.364C106.578 39.329 106.978 38.518 107.781 37.929C108.584 37.34 109.573 37.046 110.751 37.046C111.799 37.046 112.659 37.24 113.331 37.628V37.356C113.331 36.656 113.091 36.098 112.613 35.678C112.135 35.258 111.546 35.048 110.847 35.048C110.329 35.048 109.86 35.171 109.44 35.418C109.04 35.6396 108.734 35.9978 108.577 36.427L106.947 35.729C107.167 35.159 107.6 34.633 108.247 34.149C108.894 33.665 109.747 33.421 110.807 33.421C112.023 33.421 113.032 33.777 113.834 34.488C114.636 35.199 115.037 36.202 115.037 37.495V43.238H113.34V41.918H113.262C112.55 43.004 111.509 43.548 110.138 43.548L110.13 43.537ZM110.43 41.907C111.167 41.907 111.837 41.632 112.438 41.082C113.039 40.532 113.34 39.882 113.34 39.132C112.836 38.718 112.08 38.512 111.07 38.512C110.203 38.512 109.55 38.7 109.11 39.075C108.67 39.45 108.45 39.89 108.45 40.395C108.45 40.861 108.65 41.229 109.052 41.501C109.454 41.773 109.912 41.909 110.43 41.909V41.907ZM120.23 43.537C119.17 43.537 118.293 43.277 117.6 42.761C116.925 42.2654 116.398 41.5945 116.077 40.821L117.677 40.161C118.181 41.361 119.042 41.946 120.257 41.946C120.813 41.946 121.269 41.823 121.625 41.576C121.981 41.329 122.159 41.006 122.159 40.606C122.159 39.986 121.726 39.566 120.859 39.346L118.939 38.88C118.331 38.725 117.755 38.43 117.212 37.997C116.669 37.564 116.4 37 116.4 36.252C116.4 35.412 116.772 34.729 117.516 34.205C118.26 33.681 119.143 33.419 120.166 33.419C121.006 33.419 121.766 33.619 122.416 33.991C123.066 34.363 123.548 34.919 123.833 35.631L122.281 36.271C121.931 35.431 121.207 35.011 120.108 35.011C119.578 35.011 119.131 35.111 118.768 35.341C118.405 35.571 118.225 35.858 118.225 36.233C118.225 36.776 118.645 37.145 119.485 37.339L121.367 37.785C122.259 37.992 122.919 38.348 123.347 38.852C123.775 39.356 123.987 39.926 123.987 40.559C123.987 41.413 123.637 42.124 122.939 42.693C122.241 43.262 121.341 43.547 120.242 43.547L120.23 43.537ZM129.737 43.537C128.301 43.537 127.133 43.059 126.235 42.101C125.337 41.143 124.885 39.935 124.885 38.473C124.885 37.089 125.321 35.899 126.185 34.903C127.049 33.907 128.185 33.409 129.532 33.409C130.932 33.409 132.07 33.869 132.918 34.787C133.766 35.705 134.188 36.934 134.188 38.474V38.804H126.688C126.738 39.761 127.06 40.518 127.648 41.074C127.921 41.3419 128.244 41.5534 128.598 41.6965C128.953 41.8396 129.332 41.9115 129.714 41.908C130.994 41.908 131.861 41.365 132.314 40.278L133.914 40.938C133.614 41.675 133.092 42.293 132.381 42.791C131.67 43.289 130.796 43.538 129.761 43.538L129.737 43.537ZM132.297 37.337C132.257 36.794 132.009 36.277 131.55 35.785C131.091 35.293 130.408 35.048 129.503 35.048C128.874 35.0369 128.263 35.258 127.786 35.669C127.301 36.083 126.968 36.639 126.786 37.339H132.286L132.297 37.337Z" fill="#63666A"></path></svg>