<svg xmlns="http://www.w3.org/2000/svg" width="170" height="70" viewBox="0 0 170 70" fill="none"><rect width="170" height="70" rx="10" fill="white"></rect><mask id="mask0_42_6564" style="mask-type:luminance" maskUnits="userSpaceOnUse" x="38" y="17" width="28" height="35"><path d="M65.5691 32.9766L56.5243 42.0247L65.5691 51.0728H55.2335L51.3549 47.1941L46.1855 42.0247L55.2335 32.9766H65.5691ZM55.2335 17.4716L38.4346 34.2705L43.604 39.44L65.5691 17.4716H55.2335Z" fill="white"></path></mask><g mask="url(#mask0_42_6564)"><path d="M51.3549 47.1941L65.5691 32.9766H55.2335L46.1887 42.0247L51.3549 47.1941Z" fill="#39CEFD"></path></g><mask id="mask1_42_6564" style="mask-type:luminance" maskUnits="userSpaceOnUse" x="38" y="17" width="28" height="35"><path d="M65.5691 32.9766L56.5243 42.0247L65.5691 51.0728H55.2335L51.3549 47.1941L46.1855 42.0247L55.2335 32.9766H65.5691ZM55.2335 17.4716L38.4346 34.2705L43.604 39.44L65.5691 17.4716H55.2335Z" fill="white"></path></mask><g mask="url(#mask1_42_6564)"><path d="M38.4346 34.2705L55.2335 17.4716H65.5691L43.604 39.44L38.4346 34.2705Z" fill="#39CEFD"></path></g><mask id="mask2_42_6564" style="mask-type:luminance" maskUnits="userSpaceOnUse" x="38" y="17" width="28" height="35"><path d="M65.5691 32.9766L56.5243 42.0247L65.5691 51.0728H55.2335L51.3549 47.1941L46.1855 42.0247L55.2335 32.9766H65.5691ZM55.2335 17.4716L38.4346 34.2705L43.604 39.44L65.5691 17.4716H55.2335Z" fill="white"></path></mask><g mask="url(#mask2_42_6564)"><path d="M55.2332 51.0695H65.5688L56.5239 42.0247L51.3545 47.1941L55.2332 51.0695Z" fill="#03569B"></path></g><mask id="mask3_42_6564" style="mask-type:luminance" maskUnits="userSpaceOnUse" x="38" y="17" width="28" height="35"><path d="M65.5691 32.9766L56.5243 42.0247L65.5691 51.0728H55.2335L51.3549 47.1941L46.1855 42.0247L55.2335 32.9766H65.5691ZM55.2335 17.4716L38.4346 34.2705L43.604 39.44L65.5691 17.4716H55.2335Z" fill="white"></path></mask><g mask="url(#mask3_42_6564)"><path d="M56.5239 42.0247L51.3545 47.1941L59.0213 44.5382L56.5239 42.0247Z" fill="url(#paint0_linear_42_6564)"></path></g><mask id="mask4_42_6564" style="mask-type:luminance" maskUnits="userSpaceOnUse" x="38" y="17" width="28" height="35"><path d="M65.5691 32.9766L56.5243 42.0247L65.5691 51.0728H55.2335L51.3549 47.1941L46.1855 42.0247L55.2335 32.9766H65.5691ZM55.2335 17.4716L38.4346 34.2705L43.604 39.44L65.5691 17.4716H55.2335Z" fill="white"></path></mask><g mask="url(#mask4_42_6564)"><path d="M46.1887 42.0214L51.3581 36.852L56.5275 42.0214L51.3581 47.1941L46.1887 42.0214Z" fill="#16B9FD"></path></g><path d="M65.5691 32.9766L56.5243 42.0247L65.5691 51.0728H55.2335L51.3549 47.1941L46.1855 42.0247L55.2335 32.9766H65.5691ZM55.2335 17.4716L38.4346 34.2705L43.604 39.44L65.5691 17.4716H55.2335Z" fill="url(#paint1_radial_42_6564)"></path><path d="M68.8417 26.478H77.9003V28.2035H70.7397V33.5523H77.2101V35.2778H70.7397V42.007H68.928V26.478H68.8417Z" fill="#808080"></path><path d="M80.0576 26.478H81.8693V42.0932H80.0576V26.478Z" fill="#808080"></path><path d="M88.684 42.4383C87.3036 42.4383 86.3546 42.0069 85.5782 41.2305C84.888 40.454 84.5429 39.3325 84.5429 37.9521V30.9641H86.3546V37.6933C86.3546 38.7286 86.6134 39.505 87.0448 40.0227C87.5624 40.5403 88.1663 40.7991 89.029 40.7991C89.6329 40.7991 90.2369 40.6266 90.6682 40.2815C91.1858 39.9364 91.5309 39.505 91.7897 38.9874C92.0486 38.4698 92.2211 37.8659 92.2211 37.262V30.9641H94.0328V42.0932H92.3074V40.454H92.2211C91.876 40.9716 91.4447 41.4893 90.7545 41.8344C90.1506 42.2657 89.4604 42.4383 88.684 42.4383Z" fill="#808080"></path><path d="M101.28 42.2658C100.849 42.2658 100.417 42.1795 99.9859 42.007C99.6408 41.8344 99.2957 41.6619 99.0369 41.4031C98.7781 41.1442 98.5193 40.7991 98.3467 40.4541C98.1742 40.109 98.0879 39.6776 98.0879 39.16V32.6033H96.1036V30.9642H98.0879V27.8584H99.8996V30.9642H102.574V32.6033H99.8996V38.6424C99.8996 39.2463 99.9859 39.6776 100.245 40.0227C100.504 40.3678 100.935 40.5403 101.452 40.5403C101.884 40.5403 102.315 40.4541 102.66 40.1952V42.007C102.401 42.0932 102.229 42.1795 101.97 42.2658C101.97 42.2658 101.625 42.2658 101.28 42.2658Z" fill="#808080"></path><path d="M109.131 42.2658C108.699 42.2658 108.268 42.1795 107.837 42.007C107.492 41.8344 107.146 41.6619 106.888 41.4031C106.629 41.1442 106.37 40.7991 106.197 40.4541C106.025 40.109 105.939 39.6776 105.939 39.16V32.6033H104.127V30.9642H106.111V27.8584H107.923V30.9642H110.597V32.6033H107.923V38.6424C107.923 39.2463 108.009 39.6776 108.268 40.0227C108.527 40.3678 108.958 40.5403 109.476 40.5403C109.907 40.5403 110.338 40.4541 110.684 40.1952V42.007C110.425 42.0932 110.252 42.1795 109.993 42.2658C109.821 42.2658 109.476 42.2658 109.131 42.2658Z" fill="#808080"></path><path d="M117.327 42.4383C116.292 42.4383 115.343 42.1795 114.48 41.6618C113.617 41.1442 113.013 40.454 112.496 39.5913C112.064 38.7286 111.806 37.6933 111.806 36.5718C111.806 35.5365 112.064 34.5013 112.496 33.6386C112.927 32.7758 113.617 31.9994 114.394 31.4818C115.17 30.9641 116.119 30.7053 117.241 30.7053C118.362 30.7053 119.311 30.9641 120.088 31.4818C120.864 31.9994 121.468 32.6033 121.899 33.466C122.331 34.3287 122.59 35.2777 122.59 36.3993C122.59 36.6581 122.59 36.8306 122.503 37.0032H113.617C113.704 37.8659 113.876 38.5561 114.221 39.16C114.566 39.7639 115.084 40.1952 115.602 40.454C116.205 40.7129 116.723 40.8854 117.327 40.8854C118.794 40.8854 119.829 40.1952 120.605 38.9011L122.158 39.6776C121.641 40.5403 121.037 41.3168 120.174 41.8344C119.484 42.1795 118.535 42.4383 117.327 42.4383ZM120.519 35.364C120.519 34.9326 120.347 34.415 120.088 33.9837C119.829 33.5523 119.484 33.1209 118.966 32.7758C118.449 32.4308 117.845 32.2582 117.068 32.2582C116.205 32.2582 115.429 32.517 114.825 33.1209C114.221 33.6386 113.876 34.415 113.617 35.364H120.519Z" fill="#808080"></path><path d="M124.66 30.9641H126.386V32.7758H126.472C126.731 32.1719 127.076 31.6543 127.766 31.3092C128.37 30.8779 129.06 30.7053 129.75 30.7053C130.268 30.7053 130.699 30.7916 131.044 30.9641V32.9484C130.613 32.6896 130.095 32.6033 129.491 32.6033C128.974 32.6033 128.456 32.7758 128.025 33.0347C127.593 33.3798 127.248 33.7248 126.903 34.2425C126.644 34.7601 126.472 35.2777 126.472 35.8816V42.0932H124.66V30.9641Z" fill="#808080"></path><defs><linearGradient id="paint0_linear_42_6564" x1="-772.482" y1="-345.768" x2="-772.333" y2="-345.917" gradientUnits="userSpaceOnUse"><stop stop-color="#1A237E" stop-opacity="0.4"></stop><stop offset="1" stop-color="#1A237E" stop-opacity="0"></stop></linearGradient><radialGradient id="paint1_radial_42_6564" cx="0" cy="0" r="1" gradientUnits="userSpaceOnUse" gradientTransform="translate(-702.701 -284.755) scale(1.59573 1.59574)"><stop stop-color="white" stop-opacity="0.1"></stop><stop offset="1" stop-color="white" stop-opacity="0"></stop></radialGradient></defs></svg>