<svg xmlns="http://www.w3.org/2000/svg" width="170" height="70" viewBox="0 0 170 70" fill="none"><rect width="170" height="70" rx="10" fill="white"></rect><path fill-rule="evenodd" clip-rule="evenodd" d="M49.4667 45.3557V26.0423C49.4667 25.5031 49.6809 24.9859 50.0622 24.6046C50.4435 24.2232 50.9607 24.009 51.5 24.009H70.8133L49.4667 45.3557Z" fill="#1EA361"></path><path fill-rule="evenodd" clip-rule="evenodd" d="M49.4667 45.76V45.3547L70.8133 24.008H71.2187C71.7579 24.008 72.2751 24.2222 72.6565 24.6035C73.0378 24.9849 73.252 25.5021 73.252 26.0413V26.4413L51.9053 47.788H51.5067C50.9674 47.788 50.4502 47.5738 50.0689 47.1924C49.6876 46.8111 49.4733 46.2939 49.4733 45.7547" fill="#FEDB43"></path><path fill-rule="evenodd" clip-rule="evenodd" d="M51.913 47.7947L61.3663 38.3414L70.8196 47.7947H51.913Z" fill="#5384C4"></path><path fill-rule="evenodd" clip-rule="evenodd" d="M70.8204 47.7947L61.3671 38.3334L63.8071 35.8934L73.2671 45.3534V45.7587C73.2671 46.8814 72.3557 47.792 71.2324 47.792H70.8271L70.8204 47.7947Z" fill="white"></path><path fill-rule="evenodd" clip-rule="evenodd" d="M73.2663 45.3553L63.7997 35.902L73.253 26.4487L73.2663 45.3553Z" fill="#C2C2C1"></path><path d="M53.7167 26.6373C54.9267 26.084 56.4413 26.3093 57.4233 27.216L56.49 28.1407C55.5073 27.1647 53.66 27.6273 53.1993 28.9187C52.5967 30.1887 53.598 31.852 55.0147 31.8767C55.948 31.9847 56.8667 31.3633 57.0613 30.44C56.4147 30.4413 55.768 30.4353 55.128 30.4447L55.116 29.2467L58.3713 29.2907C58.4527 30.0813 58.3967 30.9213 57.9713 31.6153C57.3047 32.8573 55.7293 33.3993 54.3967 33.086C52.7487 32.7447 51.5153 31.054 51.7407 29.3793C51.856 28.198 52.654 27.1273 53.7287 26.638" fill="#EFEFEF"></path><path d="M69.1064 20.6587H69.8797C71.813 20.7694 73.691 21.7107 74.8597 23.2587C75.625 24.2374 76.0517 25.4587 76.1477 26.6854V27.1434C76.103 29.534 74.573 31.4967 73.2477 33.3567C71.761 35.458 70.3864 37.748 70.005 40.338C69.903 40.7767 70.025 41.3914 69.501 41.5894C69.3777 41.4934 69.2344 41.414 69.1477 41.2794C68.9924 39.8314 68.6304 38.4014 68.013 37.0794C67.313 35.546 66.3364 34.146 65.345 32.784C64.7417 31.9667 64.1717 31.1214 63.701 30.22C62.9677 28.8694 62.6857 27.2734 62.9877 25.7574C63.2357 24.5607 63.8544 23.452 64.729 22.5947C65.897 21.4527 67.4757 20.7614 69.1064 20.6594M68.9557 24.8707C68.0424 25.0747 67.2744 25.884 67.197 26.8307C67.101 27.712 67.617 28.606 68.4064 28.9954C69.2624 29.4487 70.3864 29.3087 71.1017 28.662C71.7697 28.0714 72.0124 27.0514 71.6637 26.226C71.2504 25.1927 70.0264 24.6047 68.955 24.8794" fill="#DC4B3E"></path><path d="M68.955 24.87C70.0257 24.6034 71.251 25.1834 71.6637 26.2167C72.0124 27.042 71.769 28.062 71.1017 28.6527C70.3864 29.3074 69.2617 29.4527 68.4064 28.986C67.6164 28.5967 67.101 27.7027 67.197 26.8214C67.2744 25.8747 68.0417 25.066 68.9557 24.8614" fill="#802C27"></path><path d="M81.5449 46.7533V38.1773H82.6469L85.6296 43.4H85.6669L88.6583 38.1773H89.7603V46.7533H88.6583V41.662L88.7023 40.2247H88.6583L85.9756 44.9273H85.3236L82.6403 40.2247H82.5936L82.6376 41.662V46.7527L81.5449 46.7533ZM92.9729 46.9453C92.3496 46.9453 91.8289 46.7693 91.4096 46.4053C90.9903 46.0413 90.7809 45.572 90.7809 44.9807C90.7809 44.342 91.0289 43.8473 91.5276 43.4773C92.0263 43.1073 92.6343 42.932 93.3609 42.932C94.0076 42.932 94.5389 43.052 94.9543 43.292V43.1253C94.9543 42.694 94.8063 42.3487 94.5109 42.0887C94.2156 41.8287 93.8509 41.7 93.4209 41.7C93.1009 41.7 92.8116 41.7753 92.5523 41.9267C92.2929 42.078 92.1149 42.2867 92.0189 42.55L91.0083 42.1193C91.1436 41.768 91.4109 41.4427 91.8109 41.1433C92.2109 40.844 92.7363 40.694 93.3909 40.694C94.1409 40.694 94.7643 40.914 95.2589 41.354C95.7536 41.794 96.0056 42.4127 96.0056 43.2107V46.756H94.9536V45.9387H94.9096C94.4696 46.6093 93.8283 46.9493 92.9816 46.9493L92.9729 46.9453ZM93.1529 45.9347C93.6083 45.9347 94.0216 45.7653 94.3929 45.426C94.7643 45.0867 94.9503 44.686 94.9503 44.2227C94.6389 43.9667 94.1716 43.8393 93.5503 43.8393C93.0149 43.8393 92.6116 43.9547 92.3403 44.1907C92.0689 44.4267 91.9336 44.694 91.9336 45.0053C91.9336 45.292 92.0576 45.5207 92.3049 45.688C92.5523 45.8553 92.8356 45.9393 93.1556 45.9393L93.1529 45.9347ZM100.303 46.9453C99.8563 46.9453 99.4549 46.8493 99.0989 46.6587C98.7429 46.468 98.4789 46.2273 98.3023 45.9387H98.2583L98.3023 46.7533V49.34H97.2003V40.8847H98.2549V41.6993H98.2989C98.4749 41.4113 98.7403 41.1727 99.0956 40.9807C99.4509 40.7887 99.8516 40.694 100.3 40.694C101.058 40.694 101.713 40.994 102.264 41.5927C102.816 42.1913 103.091 42.9327 103.091 43.8213C103.091 44.71 102.816 45.45 102.264 46.05C101.713 46.65 101.058 46.948 100.3 46.948L100.303 46.9453ZM100.127 45.9347C100.638 45.9347 101.076 45.7347 101.445 45.3533C101.814 44.972 101.996 44.4533 101.996 43.8147C101.996 43.176 101.812 42.6633 101.445 42.2813C101.078 41.8993 100.645 41.7013 100.127 41.7013C99.8782 41.6978 99.6316 41.7472 99.4034 41.8462C99.1752 41.9453 98.9708 42.0918 98.8036 42.276C98.4403 42.6593 98.2583 43.1747 98.2583 43.8213C98.2583 44.468 98.4403 44.9833 98.8036 45.366C98.9703 45.5493 99.1741 45.6951 99.4014 45.7936C99.6288 45.8921 99.8745 45.9411 100.122 45.9373L100.127 45.9347ZM106.224 46.9453C105.564 46.9453 105.028 46.7853 104.601 46.462C104.174 46.1387 103.86 45.7433 103.661 45.264L104.644 44.8573C104.952 45.5907 105.486 45.9593 106.237 45.9593C106.58 45.9593 106.861 45.8833 107.081 45.7313C107.301 45.5793 107.41 45.38 107.41 45.1313C107.41 44.748 107.144 44.4887 106.608 44.3533L105.421 44.0667C105.031 43.9635 104.667 43.7775 104.355 43.5213C104.02 43.2533 103.852 42.8927 103.852 42.4373C103.852 41.9187 104.082 41.4973 104.541 41.1733C105 40.8493 105.545 40.6887 106.176 40.6887C106.695 40.6887 107.159 40.8067 107.566 41.042C107.974 41.2773 108.27 41.6153 108.446 42.054L107.488 42.4493C107.268 41.9307 106.826 41.6713 106.147 41.6713C105.82 41.6713 105.544 41.7393 105.32 41.8747C105.097 42.01 104.984 42.1947 104.984 42.4253C104.984 42.7607 105.248 42.988 105.762 43.108L106.924 43.3833C107.475 43.5153 107.882 43.7347 108.146 44.0433C108.403 44.3344 108.544 44.7098 108.542 45.098C108.542 45.6247 108.322 46.0647 107.895 46.4153C107.468 46.766 106.908 46.942 106.23 46.942L106.224 46.9453ZM91.1283 28.96H86.5789V30.3093H89.8056C89.6456 32.2027 88.0709 33.0093 86.5856 33.0093C86.1146 33.0113 85.648 32.9195 85.213 32.7392C84.7779 32.5589 84.3831 32.2938 84.0515 31.9593C83.72 31.6248 83.4585 31.2277 83.2821 30.791C83.1057 30.3543 83.0181 29.8869 83.0243 29.416C83.0243 27.3733 84.6063 25.7993 86.5896 25.7993C88.1189 25.7993 89.0216 26.7753 89.0216 26.7753L89.9663 25.7967C89.9663 25.7967 88.7529 24.4467 86.5409 24.4467C83.7243 24.4467 81.5449 26.8287 81.5449 29.392C81.5449 31.908 83.5949 34.362 86.6129 34.362C89.2676 34.362 91.2149 32.5433 91.2149 29.854C91.2149 29.2827 91.1329 28.9593 91.1329 28.9593L91.1283 28.96ZM94.8536 27.9827C92.9869 27.9827 91.6449 29.4427 91.6449 31.144C91.6449 32.8707 92.9423 34.3527 94.8716 34.3527C96.6183 34.3527 98.0476 33.018 98.0476 31.1767C98.0476 29.0653 96.3836 27.9787 94.8496 27.9787L94.8536 27.9827ZM94.8723 29.2347C95.7903 29.2347 96.6589 29.9767 96.6589 31.172C96.6589 32.3427 95.7923 33.1053 94.8669 33.1053C93.8496 33.1053 93.0469 32.2907 93.0469 31.1627C93.0469 30.0587 93.8403 29.2347 94.8709 29.2347H94.8723ZM101.822 27.9827C99.9556 27.9827 98.6136 29.4427 98.6136 31.144C98.6136 32.8707 99.9109 34.3527 101.84 34.3527C103.587 34.3527 105.016 33.018 105.016 31.1767C105.016 29.0653 103.353 27.9787 101.818 27.9787L101.822 27.9827ZM101.841 29.2347C102.759 29.2347 103.628 29.9767 103.628 31.172C103.628 32.3427 102.761 33.1053 101.836 33.1053C100.819 33.1053 100.016 32.2907 100.016 31.1627C100.016 30.0587 100.81 29.2347 101.841 29.2347ZM108.657 27.9867C106.944 27.9867 105.597 29.4867 105.597 31.1713C105.597 33.09 107.158 34.3627 108.627 34.3627C109.536 34.3627 110.018 34.0027 110.375 33.588V34.2167C110.375 35.3167 109.707 35.9747 108.7 35.9747C107.726 35.9747 107.238 35.2507 107.068 34.84L105.844 35.352C106.277 36.2753 107.154 37.2287 108.71 37.2287C110.414 37.2287 111.712 36.1553 111.712 33.906V28.1793H110.376V28.7127C109.966 28.27 109.403 27.9813 108.663 27.9813L108.657 27.9867ZM108.782 29.236C109.617 29.236 110.484 29.9533 110.484 31.178C110.484 32.4233 109.624 33.1093 108.762 33.1093C107.849 33.1093 107.004 32.368 107.004 31.1893C107.004 29.966 107.887 29.236 108.786 29.236H108.782ZM117.654 27.9787C116.038 27.9787 114.68 29.264 114.68 31.162C114.68 33.1687 116.192 34.36 117.808 34.36C119.158 34.36 119.984 33.6227 120.478 32.9613L119.377 32.228C119.09 32.668 118.613 33.1053 117.816 33.1053C116.92 33.1053 116.509 32.6147 116.253 32.14L120.52 30.3667L120.298 29.8467C119.884 28.8293 118.922 27.9787 117.647 27.9787H117.654ZM117.71 29.2093C118.292 29.2093 118.711 29.5187 118.89 29.8893L116.036 31.0827C115.913 30.1593 116.783 29.216 117.706 29.216L117.71 29.2093ZM112.643 34.1707H114.047V24.7773H112.643V34.1707Z" fill="#63666A"></path></svg>