<svg xmlns="http://www.w3.org/2000/svg" width="170" height="70" viewBox="0 0 170 70" fill="none"><rect width="170" height="70" rx="10" fill="white"></rect><g clip-path="url(#clip0_63_209)"><path d="M70.0983 26.629C70.0983 26.9748 69.8878 27.2306 69.5265 27.2306C69.2257 27.2306 69 26.9748 69 26.629C69 26.2978 69.2406 26.0271 69.5566 26.0271C69.8878 26.0271 70.0983 26.2978 70.0983 26.629ZM69.2657 44.7114V30.8794H69.8326V44.7114H69.2657ZM88.6908 34.8561C88.6908 41.8297 84.8196 44.9998 80.582 44.9998C76.2532 44.9998 72.7477 41.5709 72.7477 35.1445C72.7477 28.546 76.3753 25.0013 80.8868 25.0013C85.3069 25.0008 88.6908 28.4876 88.6908 34.8561ZM73.3222 35.0002C73.3222 40.2878 75.8849 44.3954 80.6088 44.3954C85.3656 44.3954 88.0938 40.1614 88.0938 34.94C88.0938 30.0981 85.9078 25.6793 80.9195 25.6793C75.9312 25.6793 73.3222 29.8397 73.3222 35.0002ZM90.7717 43.2127C91.7229 43.8466 93.3647 44.4589 94.7767 44.4589C97.4566 44.4589 99.8401 42.584 99.8401 39.8244C99.8401 37.2636 98.2524 35.9274 95.5568 34.7795C93.1443 33.7522 90.9752 32.6372 90.9752 29.8997C90.9752 27.0471 93.2226 25.0294 96.2772 25.0294C97.9197 25.0294 99.1588 25.4905 99.7352 25.8939L99.5062 26.3914C99.0163 26.0458 97.6922 25.6055 96.2519 25.6055C93.0237 25.6055 91.6175 28.0448 91.6175 29.8405C91.6175 32.3208 93.5401 33.1501 96.0183 34.3316C98.8998 35.7434 100.427 36.9883 100.427 39.6973C100.427 42.6078 98.3522 44.9702 94.6637 44.9702C93.1362 44.9702 91.3786 44.4518 90.5141 43.7887L90.7717 43.2127Z" fill="black"></path></g><defs><clipPath id="clip0_63_209"><rect width="31.4268" height="20" fill="white" transform="translate(69 25)"></rect></clipPath></defs></svg>