<svg xmlns="http://www.w3.org/2000/svg" width="170" height="70" viewBox="0 0 170 70" fill="none"><rect width="170" height="70" rx="10" fill="white"></rect><g clip-path="url(#clip0_42_6559)"><path d="M48.1478 25.0055V41.3473H54.0607V44.162H45V25.0055H48.1478ZM65.1632 33.1303V31.4075H68.1551V44.1691H65.1774V42.4392C64.7662 43.0772 64.199 43.5735 63.4617 43.928C62.7243 44.3038 61.9728 44.481 61.2284 44.481C60.2571 44.481 59.3709 44.3038 58.5698 43.9493C57.7867 43.6099 57.0819 43.1127 56.4996 42.4888C55.9222 41.8697 55.4653 41.1484 55.1525 40.3619C54.8303 39.54 54.6691 38.6639 54.6775 37.7812C54.6775 36.8879 54.8406 36.03 55.1596 35.2289C55.4687 34.432 55.9257 33.7007 56.5066 33.0736C57.0837 32.4463 57.7835 31.9444 58.5627 31.5989C59.3709 31.2445 60.2642 31.0672 61.2213 31.0672C61.9657 31.0672 62.7102 31.2516 63.4475 31.6131C64.1848 31.9818 64.752 32.4781 65.149 33.1162L65.1632 33.1303ZM64.8938 39.348C65.0806 38.8492 65.1766 38.321 65.1774 37.7883C65.1774 37.2353 65.0781 36.7248 64.8938 36.2285C64.724 35.751 64.4641 35.3106 64.1281 34.9311C63.7929 34.5661 63.3879 34.272 62.937 34.0662C62.4523 33.8438 61.9248 33.73 61.3915 33.733C60.8243 33.733 60.3138 33.8535 59.8601 34.0733C59.4156 34.2797 59.0158 34.5712 58.6832 34.9311C58.3481 35.3087 58.0925 35.75 57.9317 36.2285C57.7558 36.7297 57.6671 37.2572 57.6694 37.7883C57.6694 38.3342 57.7544 38.8517 57.9317 39.348C58.1018 39.8443 58.3571 40.2697 58.6832 40.6242C59.0129 40.9946 59.413 41.2959 59.8601 41.5104C60.3138 41.7231 60.8243 41.8365 61.3915 41.8365C61.9587 41.8365 62.4762 41.7302 62.937 41.5104C63.3892 41.3006 63.7943 41.0015 64.1281 40.6313C64.4618 40.2582 64.7216 39.8251 64.8938 39.3551V39.348ZM70.5089 44.1691V31.4075H78.6054V34.3427H73.4866V44.162H70.5089V44.1691ZM89.4172 33.1303V31.4075H92.3949V44.1691H89.4172V42.4392C89.0202 43.0772 88.4459 43.5735 87.7157 43.928C86.9712 44.3038 86.2268 44.481 85.4753 44.481C84.504 44.481 83.6178 44.3038 82.8167 43.9493C82.0336 43.6099 81.3288 43.1127 80.7464 42.4888C80.1691 41.8697 79.7122 41.1484 79.3994 40.3619C79.0797 39.5395 78.9208 38.6634 78.9315 37.7812C78.9315 36.8879 79.0875 36.03 79.4065 35.2289C79.7156 34.432 80.1726 33.7007 80.7535 33.0736C81.3306 32.4463 82.0304 31.9444 82.8096 31.5989C83.6178 31.2445 84.5111 31.0672 85.4682 31.0672C86.2126 31.0672 86.9571 31.2516 87.6944 31.6131C88.4317 31.9818 89.006 32.4781 89.3959 33.1162L89.4172 33.1303ZM89.1478 39.348C89.3297 38.8483 89.421 38.3201 89.4172 37.7883C89.4172 37.2353 89.325 36.7248 89.1478 36.2285C88.9801 35.7516 88.7226 35.3112 88.3892 34.9311C88.0498 34.5646 87.6398 34.2704 87.1839 34.0662C86.7231 33.8535 86.2056 33.733 85.6455 33.733C85.0783 33.733 84.5678 33.8535 84.107 34.0733C83.6625 34.2797 83.2627 34.5712 82.9301 34.9311C82.595 35.3087 82.3394 35.75 82.1786 36.2285C82.0051 36.7301 81.9188 37.2576 81.9233 37.7883C81.9233 38.3342 82.0084 38.8517 82.1786 39.348C82.3558 39.8443 82.604 40.2697 82.9301 40.6242C83.2598 40.9946 83.6599 41.2959 84.107 41.5104C84.5678 41.7231 85.0783 41.8365 85.6455 41.8365C86.2126 41.8365 86.7231 41.7302 87.191 41.5104C87.6483 41.3022 88.0584 41.0031 88.3963 40.6313C88.7274 40.2576 88.9848 39.8246 89.1549 39.3551L89.1478 39.348ZM104.362 31.4075H107.39L102.498 44.1691H98.7402L93.8483 31.4075H96.8614L100.619 41.1772L104.362 31.4146V31.4075ZM113.891 31.0814C117.953 31.0814 120.725 34.683 120.201 38.8943H110.296C110.296 39.9861 111.417 42.113 114.054 42.113C116.323 42.113 117.847 40.1279 117.847 40.1279L119.861 41.6876C118.053 43.6019 116.578 44.4881 114.26 44.4881C110.133 44.4881 107.34 41.8649 107.34 37.7741C107.34 34.0662 110.233 31.0672 113.884 31.0672L113.891 31.0814ZM110.311 36.6823H117.471C117.443 36.4341 117.046 33.4494 113.87 33.4494C110.679 33.4494 110.339 36.4412 110.311 36.6823ZM122.151 44.1478V25.0055H125.128V44.162H122.151V44.1478Z" fill="#FF2D20"></path></g><defs><clipPath id="clip0_42_6559"><rect width="80.1282" height="20" fill="white" transform="translate(45 25)"></rect></clipPath></defs></svg>