<svg xmlns="http://www.w3.org/2000/svg" width="170" height="70" viewBox="0 0 170 70" fill="none"><rect width="170" height="70" rx="10" fill="white"></rect><path fill-rule="evenodd" clip-rule="evenodd" d="M43.9363 38.8456C43.0738 38.8262 42.3994 38.9105 41.8352 39.1504C41.6731 39.2153 41.4137 39.2153 41.3942 39.4228C41.4785 39.5071 41.4915 39.6498 41.5693 39.7665C41.7178 40.0179 41.9087 40.2417 42.1335 40.428L42.8274 40.9273C43.2489 41.1867 43.7223 41.3359 44.1374 41.5953C44.3773 41.7444 44.6108 41.939 44.7859 42.1011C44.9026 42.1854 44.9804 42.3281 45.1296 42.38V42.3476C45.0518 42.2503 45.0323 42.1076 44.9545 42.0038L44.6302 41.6926C44.3142 41.2741 43.9359 40.9067 43.5083 40.6031C43.1646 40.3631 42.4059 40.0389 42.2632 39.6433L42.2437 39.6238C42.4837 39.6044 42.7626 39.5136 42.9895 39.4487C43.3592 39.3515 43.6899 39.3709 44.0725 39.2736L44.5913 39.1245V39.0272C44.3968 38.8327 44.2541 38.5733 44.0531 38.3917C43.5018 37.9183 42.8987 37.4513 42.2697 37.0622C41.9325 36.8482 41.5045 36.7056 41.1478 36.524C41.0181 36.4591 40.8041 36.4267 40.7262 36.3165C40.5317 36.0765 40.4214 35.7652 40.2853 35.4864L39.3968 33.6057C39.2023 33.1842 39.0855 32.7627 38.8456 32.3736C37.844 30.6703 36.3982 29.2715 34.6627 28.3269C34.2607 28.0999 33.7872 28.0026 33.2814 27.8859L32.4708 27.8405C32.2957 27.7627 32.1271 27.5616 31.9714 27.4644C31.3553 27.0753 29.7665 26.2322 29.3774 27.3476C29.0856 28.048 29.8119 28.7419 30.0583 29.0986C30.2399 29.345 30.4799 29.6304 30.6096 29.9092C30.6874 30.0908 30.7068 30.2854 30.7847 30.4799L31.3489 31.9261C31.4659 32.1585 31.6003 32.3818 31.7509 32.594C31.8352 32.7108 31.9909 32.7691 32.0233 32.9637C31.8742 33.1777 31.8612 33.502 31.7769 33.7743C31.3878 34.9935 31.5369 36.511 32.0882 37.406C32.2633 37.6783 32.7367 38.2685 33.223 38.0415C33.7094 37.8469 33.5992 37.2309 33.7418 36.6926C33.7743 36.5629 33.7548 36.4786 33.8197 36.3878V36.4073L34.2607 37.3022C34.5979 37.834 35.1815 38.3852 35.6679 38.7484C35.9273 38.9429 36.1348 39.2801 36.4591 39.3969V39.3644H36.4137C36.3488 39.2672 36.2516 39.2218 36.1673 39.1504C35.9618 38.95 35.7731 38.7331 35.6031 38.5019C35.1452 37.8816 34.7396 37.2243 34.3904 36.537C34.2153 36.1997 34.0661 35.8366 33.9234 35.4993C33.8586 35.3696 33.8586 35.1751 33.7483 35.1102C33.5862 35.3502 33.3463 35.5512 33.2295 35.8431C33.022 36.31 33.0026 36.8807 32.9247 37.4773C32.5356 37.4124 32.4189 37.0558 32.2892 36.751C31.9649 35.9857 31.9131 34.7406 32.1919 33.8651C32.2697 33.6381 32.594 32.9248 32.4643 32.7108C32.3994 32.5033 32.1854 32.3865 32.0622 32.2244C31.9195 32.0169 31.7704 31.7575 31.6731 31.5305C31.4851 30.9209 31.2905 30.2465 31.0116 29.6433C30.8819 29.3645 30.655 29.0791 30.4669 28.8197C30.2659 28.5214 30.0389 28.3139 29.8768 27.9767C29.8184 27.847 29.7471 27.6524 29.8314 27.5227C29.8508 27.4384 29.8962 27.406 29.9805 27.3801C30.1232 27.2633 30.5188 27.4125 30.6614 27.4773C31.0635 27.6395 31.3943 27.7886 31.7315 28.0156C31.8806 28.1258 32.0428 28.3269 32.2373 28.3852H32.4643C32.808 28.4631 33.1971 28.4047 33.5214 28.502C34.092 28.6836 34.6108 28.9559 35.0778 29.2478C36.5089 30.1601 37.6725 31.4356 38.45 32.9442C38.5797 33.1907 38.6316 33.4176 38.7548 33.677L39.4876 35.2659C39.7146 35.7717 39.9286 36.2905 40.2528 36.712C40.415 36.939 41.0635 37.0558 41.3553 37.179C41.5693 37.2762 41.9065 37.3606 42.1011 37.4838L43.1841 38.2166C43.3592 38.3463 43.8326 38.6187 43.9299 38.8327L43.9363 38.8456Z" fill="#00678C"></path><path fill-rule="evenodd" clip-rule="evenodd" d="M32.9115 29.4488C32.7299 29.4488 32.6002 29.4682 32.4705 29.5006V29.5201H32.49C32.5743 29.6952 32.7299 29.8119 32.8337 29.9611L33.0801 30.4799L33.0996 30.4604C33.2487 30.3502 33.3265 30.1816 33.3265 29.9222C33.2617 29.8443 33.2487 29.773 33.1968 29.6952C33.132 29.5849 32.9893 29.5331 32.905 29.4488H32.9115Z" fill="#00678C"></path><path fill-rule="evenodd" clip-rule="evenodd" d="M90.2655 41.6601H99.5651C100.655 41.6601 101.692 41.4397 102.535 41.0441C103.943 40.3956 104.61 39.5331 104.61 38.3982V36.0246C104.61 35.1167 103.845 34.2413 102.315 33.6511C101.434 33.3385 100.506 33.1806 99.5716 33.1842H95.6676C94.3576 33.1842 93.7415 32.7951 93.5664 31.9261C93.5405 31.8288 93.5405 31.7315 93.5405 31.6278V30.1686C93.5405 30.0908 93.5405 29.9935 93.5664 29.8963C93.7415 29.2283 94.0852 29.0532 95.2266 28.9235H104.747V26.7705H95.687C94.3771 26.7705 93.6767 26.8483 93.0671 27.0428C91.1605 27.6265 90.3239 28.5733 90.3239 30.2335V32.1142C90.3239 33.5733 91.9581 34.8119 94.7337 35.0973C95.0321 35.1232 95.3498 35.1232 95.6741 35.1232H99.0139C99.1436 35.1232 99.2603 35.1232 99.3576 35.1492C100.369 35.2464 100.817 35.4215 101.109 35.7977C101.303 35.9922 101.355 36.1673 101.355 36.3943V38.275C101.355 38.4954 101.206 38.7938 100.901 39.0402C100.596 39.2866 100.136 39.4617 99.5132 39.4941C99.3835 39.4941 99.3187 39.5201 99.189 39.5201H90.2655V41.6601ZM124.734 37.9248C124.734 40.1297 126.394 41.3618 129.708 41.6083L130.648 41.6601H139.053V39.5201H130.577C128.631 39.5201 127.983 39.0532 127.983 37.9118V26.777H124.74V37.9312L124.734 37.9248ZM106.66 38.022V30.3632C106.66 28.4177 108.041 27.2244 110.745 26.8613L111.608 26.8094H117.743C118.067 26.8094 118.339 26.8353 118.651 26.8613C121.348 27.2309 122.704 28.4177 122.704 30.3632V38.0285C122.704 39.6109 122.133 40.4539 120.797 41.0116L123.962 43.878H120.226L117.652 41.5564L115.058 41.7055H111.595C111.024 41.7055 110.382 41.6407 109.649 41.4591C107.6 40.8884 106.582 39.7989 106.582 38.022H106.66ZM110.149 37.8534C110.149 37.9507 110.201 38.048 110.227 38.1777C110.402 39.0661 111.238 39.559 112.522 39.559H115.441L112.769 37.1336H116.504L118.852 39.2607C119.306 39.0142 119.565 38.6641 119.669 38.2231C119.695 38.1258 119.695 38.0026 119.695 37.8988V30.5707C119.695 30.4734 119.695 30.3762 119.669 30.2724C119.494 29.4293 118.657 28.9624 117.399 28.9624H112.535C111.108 28.9624 110.162 29.5785 110.162 30.5707L110.149 37.8534Z" fill="#CE8B2C"></path><path fill-rule="evenodd" clip-rule="evenodd" d="M47.341 41.6731H50.5576V28.9365L55.577 40.0389C56.1477 41.3748 56.9648 41.8677 58.5472 41.8677C60.1295 41.8677 60.8947 41.3748 61.4914 40.0389L66.4849 28.9365V41.6731H69.7274V28.9365C69.7274 27.7043 69.2345 27.1077 68.1969 26.7834C65.752 26.0441 64.1113 26.6862 63.372 28.3399L58.4434 39.319L53.6963 28.3399C52.983 26.6862 51.3228 26.0441 48.852 26.7834C47.8403 27.1077 47.341 27.6913 47.341 28.9365V41.6731ZM72.3927 31.31H75.6353V38.3139C75.6093 38.703 75.765 39.5979 77.5808 39.6238H84.5328V31.2581H87.7753V42.7042C87.7753 45.5252 84.2863 46.1413 82.6521 46.1673H72.4706V44.0142H82.6845C84.7597 43.7937 84.5133 42.7561 84.5133 42.4059V41.5629H77.6586C74.468 41.5369 72.4187 40.1362 72.3927 38.5149V31.31Z" fill="#00678C"></path></svg>