<svg xmlns="http://www.w3.org/2000/svg" width="170" height="70" viewBox="0 0 170 70" fill="none"><rect width="170" height="70" rx="10" fill="white"></rect><g clip-path="url(#clip0_63_97)"><path d="M68.1508 29.207H74.0538C75.7864 29.2216 77.042 29.7211 77.8204 30.7048C78.5988 31.6886 78.8556 33.0322 78.5913 34.7357C78.4886 35.5141 78.2609 36.2775 77.9085 37.0264C77.566 37.7822 77.0882 38.4689 76.4988 39.0529C75.7644 39.8163 74.979 40.3009 74.1419 40.5066C73.3049 40.7123 72.4384 40.815 71.5428 40.815H68.8997L68.0627 45H65.001L68.1508 29.207ZM70.7278 31.7181L69.4063 38.326C69.4944 38.3405 69.5825 38.348 69.6706 38.348H69.979C71.3886 38.3626 72.5635 38.2233 73.5032 37.9295C74.4428 37.6211 75.0745 36.5493 75.3975 34.7137C75.6618 33.1718 75.3975 32.2833 74.6045 32.0485C73.8261 31.8136 72.8499 31.7035 71.675 31.7181C71.4988 31.7326 71.33 31.7401 71.1684 31.7401H70.7058L70.7278 31.7181ZM82.0789 25H85.1186L84.2596 29.207H86.9908C88.4886 29.2366 89.6045 29.5449 90.3389 30.1322C91.0878 30.7194 91.308 31.8357 90.9996 33.4802L89.5239 40.815H86.4402L87.8499 33.8106C87.9966 33.0762 87.9525 32.5551 87.7177 32.2467C87.4829 31.9383 86.9763 31.7841 86.1979 31.7841L83.753 31.7621L81.9468 40.815H78.9071L82.0789 25ZM94.2637 29.207H100.167C101.899 29.2216 103.155 29.7211 103.933 30.7048C104.712 31.6886 104.969 33.0322 104.704 34.7357C104.602 35.5141 104.374 36.2775 104.021 37.0264C103.679 37.7822 103.201 38.4689 102.612 39.0529C101.877 39.8163 101.092 40.3009 100.255 40.5066C99.4179 40.7123 98.5514 40.815 97.6558 40.815H95.0126L94.1756 45H91.1139L94.2637 29.207ZM96.8408 31.7181L95.5192 38.326C95.6073 38.3405 95.6954 38.348 95.7835 38.348H96.0919C97.5016 38.3626 98.6765 38.2233 99.6161 37.9295C100.556 37.6211 101.187 36.5493 101.51 34.7137C101.775 33.1718 101.51 32.2833 100.717 32.0485C99.9391 31.8136 98.9628 31.7035 97.7879 31.7181C97.6117 31.7326 97.443 31.7401 97.2813 31.7401H96.8188L96.8408 31.7181Z" fill="black"></path></g><defs><clipPath id="clip0_63_97"><rect width="39.968" height="20" fill="white" transform="translate(65 25)"></rect></clipPath></defs></svg>