<svg xmlns="http://www.w3.org/2000/svg" width="170" height="70" viewBox="0 0 170 70" fill="none"><rect width="170" height="70" rx="10" fill="white"></rect><path d="M56.7008 37.8698C58.3004 37.8698 59.5971 36.5731 59.5971 34.9735C59.5971 33.3739 58.3004 32.0772 56.7008 32.0772C55.1012 32.0772 53.8045 33.3739 53.8045 34.9735C53.8045 36.5731 55.1012 37.8698 56.7008 37.8698Z" fill="#00D8FF"></path><path fill-rule="evenodd" clip-rule="evenodd" d="M56.7009 29.0847C60.5895 29.0847 64.202 29.6427 66.9258 30.5804C70.2076 31.7102 72.2254 33.4228 72.2254 34.9735C72.2254 36.5894 70.087 38.4088 66.5627 39.5764C63.8984 40.4592 60.3922 40.92 56.7009 40.92C52.9162 40.92 49.3323 40.4875 46.6379 39.5667C43.229 38.4016 41.1758 36.5587 41.1758 34.9735C41.1758 33.4354 43.1023 31.736 46.338 30.6079C49.072 29.6547 52.7737 29.0847 56.7003 29.0847H56.7009Z" stroke="#00D8FF" stroke-width="1.66272"></path><path fill-rule="evenodd" clip-rule="evenodd" d="M51.5748 32.0461C53.5175 28.6774 55.8055 25.8268 57.9786 23.9357C60.5968 21.6572 63.0884 20.7649 64.4317 21.5395C65.8316 22.3467 66.3393 25.1082 65.5902 28.7444C65.0244 31.4935 63.6715 34.7609 61.8274 37.9586C59.9366 41.2372 57.7716 44.1257 55.6282 45.9992C52.9158 48.3702 50.2936 49.2283 48.9204 48.4363C47.5879 47.6685 47.0784 45.1501 47.7176 41.7835C48.2577 38.939 49.6131 35.4476 51.5742 32.046L51.5748 32.0461Z" stroke="#00D8FF" stroke-width="1.66272"></path><path fill-rule="evenodd" clip-rule="evenodd" d="M51.5793 37.9672C49.6311 34.6024 48.3047 31.1958 47.751 28.3687C47.0846 24.9625 47.5558 22.3581 48.8978 21.5813C50.2964 20.7716 52.9423 21.7108 55.7185 24.1758C57.8174 26.0394 59.9727 28.8428 61.8222 32.0375C63.7184 35.3129 65.1396 38.6312 65.6924 41.4239C66.392 44.9579 65.8258 47.6582 64.4539 48.4524C63.1227 49.223 60.6868 48.4071 58.0893 46.1719C55.8947 44.2835 53.5468 41.3654 51.5793 37.9671V37.9672Z" stroke="#00D8FF" stroke-width="1.66272"></path><path fill-rule="evenodd" clip-rule="evenodd" d="M88.85 42.3733L85.3 37.01C87.0942 36.8517 88.7108 35.5517 88.7108 33.1767C88.7108 30.76 86.9958 29.2133 84.59 29.2133H79.3067V42.3633H80.9433V37.1383H83.5658L86.9175 42.3633L88.85 42.3733ZM84.3942 35.7092H80.9442V30.6817H84.3942C85.9525 30.6817 87.0167 31.7067 87.0167 33.1858C87.0167 34.665 85.9517 35.7108 84.3942 35.7108V35.7092ZM94.9425 42.6092C96.5008 42.6092 97.7817 42.0967 98.7283 41.1508L98.0183 40.1842C97.2683 40.9533 96.165 41.3867 95.0808 41.3867C93.0308 41.3867 91.7683 39.8883 91.65 38.095H99.3583V37.72C99.3583 34.8617 97.6625 32.6133 94.7833 32.6133C92.0625 32.6133 90.0917 34.8417 90.0917 37.6017C90.0917 40.5792 92.1225 42.6017 94.9417 42.6017L94.9425 42.6092ZM97.9008 37.0092H91.6508C91.73 35.5508 92.7342 33.8342 94.7658 33.8342C96.935 33.8342 97.8808 35.5892 97.9008 37.0092ZM109.179 42.3725V35.8267C109.179 33.52 107.504 32.6125 105.493 32.6125C103.934 32.6125 102.713 33.125 101.688 34.19L102.378 35.215C103.225 34.3083 104.153 33.8942 105.296 33.8942C106.676 33.8942 107.702 34.6233 107.702 35.905V37.62C106.933 36.7325 105.848 36.3183 104.547 36.3183C102.93 36.3183 101.213 37.3242 101.213 39.4533C101.213 41.5233 102.928 42.6083 104.547 42.6083C105.828 42.6083 106.913 42.155 107.702 41.2875V42.3708L109.179 42.3725ZM105.079 41.5442C103.699 41.5442 102.733 40.6775 102.733 39.4742C102.733 38.2517 103.699 37.3842 105.079 37.3842C106.124 37.3842 107.129 37.7783 107.702 38.5675V40.3617C107.13 41.15 106.124 41.5442 105.079 41.5442ZM116.329 42.6092C118.064 42.6092 119.089 41.8992 119.819 40.9533L118.833 40.0467C118.203 40.8942 117.394 41.2883 116.417 41.2883C114.386 41.2883 113.125 39.7108 113.125 37.6017C113.125 35.4925 114.387 33.935 116.417 33.935C117.403 33.935 118.211 34.31 118.833 35.1767L119.819 34.27C119.09 33.3233 118.064 32.6142 116.329 32.6142C113.49 32.6142 111.578 34.7833 111.578 37.6025C111.578 40.4417 113.49 42.6025 116.329 42.6025V42.6092ZM124.296 42.6092C125.163 42.6092 125.696 42.3525 126.071 41.9983L125.638 40.8942C125.44 41.1108 125.054 41.2883 124.632 41.2883C123.982 41.2883 123.665 40.7758 123.665 40.0658V34.1508H125.598V32.85H123.665V30.2475H122.186V32.85H120.608V34.1517H122.186V40.3825C122.186 41.8025 122.896 42.6108 124.296 42.6108V42.6092Z" fill="#00D8FF"></path></svg>